<svg width="64" height="64" viewBox="0 0 64 64" fill="none" xmlns="http://www.w3.org/2000/svg">
<path d="M19.2 51.2C15.68 51.2 12.832 54.08 12.832 57.6C12.832 61.12 15.68 64 19.2 64C22.72 64 25.6 61.12 25.6 57.6C25.6 54.08 22.72 51.2 19.2 51.2ZM0 0V6.4H6.4L17.92 30.688L13.6 38.528C13.088 39.424 12.8 40.48 12.8 41.6C12.8 45.12 15.68 48 19.2 48H57.6V41.6H20.544C20.096 41.6 19.744 41.248 19.744 40.8L19.84 40.416L22.72 35.2H46.56C48.96 35.2 51.072 33.888 52.16 31.904L63.616 11.136C63.872 10.688 64 10.144 64 9.6C64 7.84 62.56 6.4 60.8 6.4H13.472L10.464 0H0ZM51.2 51.2C47.68 51.2 44.832 54.08 44.832 57.6C44.832 61.12 47.68 64 51.2 64C54.72 64 57.6 61.12 57.6 57.6C57.6 54.08 54.72 51.2 51.2 51.2Z" fill="white"/>
</svg>
